<svg width="128" height="95" viewBox="0 0 128 95" fill="none" xmlns="http://www.w3.org/2000/svg">
<path d="M55.9718 91.5332C-36.8766 81.5231 8.8743 28.7357 56.3912 29.0548" stroke="#80B7B7" stroke-width="4"/>
<path d="M56.1515 64.8409C-36.6969 54.8307 9.05399 2.04334 56.5709 2.36244" stroke="#80B7B7" stroke-width="4"/>
<path d="M56.0988 72.7603C-36.7497 62.7502 9.00125 9.96277 56.5182 10.2819" stroke="#80B7B7" stroke-width="4"/>
<path d="M56.0343 82.147C-36.8141 72.1369 8.9368 19.3495 56.4537 19.6686" stroke="#80B7B7" stroke-width="4"/>
<path d="M71.5321 92.9996C164.381 82.9894 118.63 30.202 71.1127 30.5211" stroke="#80B7B7" stroke-width="4"/>
<path d="M71.3524 66.3072C164.201 56.297 118.45 3.50964 70.933 3.82875" stroke="#80B7B7" stroke-width="4"/>
<path d="M71.4051 74.2266C164.254 64.2165 118.503 11.4291 70.9857 11.7482" stroke="#80B7B7" stroke-width="4"/>
<path d="M71.4696 83.6133C164.318 73.6032 118.567 20.8158 71.0502 21.1349" stroke="#80B7B7" stroke-width="4"/>
<line x1="72.9276" y1="3.44664" x2="73.8076" y2="92.9128" stroke="#80B7B7" stroke-width="4"/>
<path d="M56.457 2.3584V29.2285M56.457 64.6971V91.5672" stroke="#80B7B7" stroke-width="4"/>
</svg>
